# xmcd CD database file
#
# Track frame offsets:
#	150
#	19290
#	35657
#	52122
#	66917
#	83140
#	99182
#	112907
#	133075
#
# Disc length: 2046 seconds
#
# Revision: 0
# Processed by: cddbd v1.4PL0 Copyright (c) Steve Scherf et al.
# Submitted via: CDex 1.50Beta5
#
DISCID=7607fc09
DTITLE=César Flores - Octubre
DYEAR=1997
DGENRE=Merengue
TTITLE0=Tanto Amor
TTITLE1=Nada
TTITLE2=Confesión
TTITLE3=Pensando en Ti
TTITLE4=Te Quiero Tanto
TTITLE5=Silencio
TTITLE6=Eres Tu
TTITLE7=Merengue Candela
TTITLE8=Brindo Por Ti
EXTD=YEAR: 1997
EXTT0=
EXTT1=
EXTT2=
EXTT3=
EXTT4=
EXTT5=
EXTT6=
EXTT7=
EXTT8=
PLAYORDER=
